<?xml version="1.0" standalone="no"?>
<!DOCTYPE svg PUBLIC "-//W3C//DTD SVG 20010904//EN"
 "http://www.w3.org/TR/2001/REC-SVG-20010904/DTD/svg10.dtd">
<svg version="1.0" xmlns="http://www.w3.org/2000/svg"
 width="700.000000pt" height="700.000000pt" viewBox="0 0 700.000000 700.000000"
 preserveAspectRatio="xMidYMid meet">
<metadata>
Created by potrace 1.11, written by Peter Selinger 2001-2013
</metadata>
<g transform="translate(0.000000,700.000000) scale(0.100000,-0.100000)"
fill="#000000" stroke="none">
<path d="M154 6984 c-23 -8 -60 -30 -82 -49 -78 -67 -73 35 -70 -1405 l3
-1285 22 -41 c59 -110 236 -204 383 -204 68 0 167 23 223 51 23 12 84 51 136
86 191 131 330 182 511 190 137 6 205 -8 325 -67 223 -109 382 -342 426 -620
15 -99 6 -274 -21 -375 -44 -169 -152 -341 -278 -441 -67 -53 -194 -116 -272
-135 -31 -8 -101 -13 -160 -13 -182 3 -329 56 -536 196 -132 89 -180 108 -294
115 -106 7 -171 -6 -267 -55 -92 -45 -147 -91 -176 -146 l-22 -41 0 -1290 0
-1290 23 -43 c29 -54 89 -98 155 -112 37 -8 413 -10 1312 -8 l1260 3 41 22
c84 45 169 174 195 294 15 70 6 190 -20 264 -12 33 -59 116 -106 185 -132 197
-182 327 -192 506 -14 256 108 479 345 631 211 135 512 171 762 91 251 -80
437 -256 518 -487 36 -104 38 -276 3 -396 -32 -112 -89 -230 -167 -341 -89
-129 -115 -195 -122 -310 -3 -67 0 -105 13 -150 24 -84 83 -192 132 -241 77
-77 -9 -73 1392 -73 828 0 1259 4 1283 10 55 16 120 69 146 120 l22 45 -2
1290 -3 1290 -22 41 c-45 84 -174 169 -294 195 -70 15 -190 6 -264 -20 -33
-12 -116 -59 -185 -106 -197 -132 -327 -182 -506 -192 -306 -17 -576 170 -703
487 -66 167 -79 409 -31 580 67 237 216 424 415 519 108 52 171 66 295 65 182
-3 329 -56 536 -196 62 -42 134 -83 160 -93 64 -22 205 -31 273 -16 79 17 199
80 252 131 85 84 79 -22 79 1410 l0 1266 -22 44 c-27 52 -92 105 -148 120 -26
7 -452 9 -1312 8 l-1273 -3 -41 -22 c-84 -45 -169 -174 -195 -294 -15 -70 -6
-190 20 -264 12 -33 59 -116 106 -185 132 -197 182 -327 192 -506 14 -256
-108 -479 -345 -631 -211 -135 -512 -171 -762 -91 -251 80 -437 256 -518 487
-36 104 -38 276 -3 396 32 112 89 230 167 341 89 129 115 195 122 310 3 67 0
105 -13 150 -24 84 -83 192 -132 241 -77 78 10 73 -1397 72 -1070 0 -1257 -3
-1292 -15z"/>
</g>
</svg>
