<?xml version="1.0" encoding="utf-8"?>
<!-- Generator: Adobe Illustrator 21.1.0, SVG Export Plug-In . SVG Version: 6.00 Build 0)  -->
<svg version="1.1" id="Layer_1" xmlns="http://www.w3.org/2000/svg" xmlns:xlink="http://www.w3.org/1999/xlink" x="0px" y="0px"
	 width="30" height="25.1" viewBox="0 0 30 25.1" style="enable-background:new 0 0 30 25.1;" xml:space="preserve">
<style type="text/css">
	.st0{fill:#9D9D9D;}
</style>
<title>logo</title>
<g id="Layer_2">
	<g id="Layer_1-2">
		<path id="logo" class="st0" d="M1,9.7C0.9,9.3,0.8,8.9,0.8,8.5c0-2.1,1.4-3.9,3.4-4.5C5,2.3,6.7,1.1,8.6,1.1c0.4,0,0.8,0,1.1,0.1
			c1.6-1.5,4.1-1.7,5.9-0.5c2.2-1.1,4.8-0.5,6.3,1.5c0.1,0,0.2,0,0.3,0c2.3,0,4.2,1.6,4.7,3.7c1.8,0.7,3,2.4,3,4.4
			c0,2.7-2.2,4.8-4.9,4.8c-1,0-1.9-0.3-2.7-0.8c-1.6,1.1-3.8,1.1-5.4,0c-0.5,0.6-1.3,1.1-2,1.3c-1.5,0.6-2.7,2.4-2.7,4.3v5.1h-1.7
			v-5.3c0-1.9-0.7-3.4-2.2-4.2C8,15.3,7.6,15,7.3,14.8c0,0,0-0.1-0.1-0.1c-0.4-0.4-0.6-0.9-0.7-1.4c0.4-0.1,0.7-0.2,1.1-0.2
			c0.5,0,1,0.1,1.4,0.3c0.3,0.1,0.6,0,0.7-0.3c0.1-0.3,0-0.5-0.3-0.6c0,0,0,0,0,0c-0.6-0.2-1.2-0.3-1.8-0.3c-0.4,0-0.8,0.1-1.2,0.2
			c0-2.1,1.7-3.7,3.8-3.7h0c0,0,0,0,0,0c0.7,0,1.5-0.2,2.2-0.5c0.6,0.7,0.9,1.5,0.9,2.4v0.1c0,0,0,0,0,0c0,0.9-0.4,1.8-1.1,2.5h0
			c-0.2,0.2-0.2,0.5,0,0.7c0,0,0,0,0,0c0.1,0.1,0.2,0.1,0.4,0.1c0.1,0,0.3-0.1,0.4-0.2c0.7-0.8,1.2-1.7,1.3-2.8
			c0.3-0.1,0.5-0.1,0.8-0.1c0.6,0,1.2,0.2,1.8,0.4c0.1,0,0.2,0.1,0.2,0.1c0.2,0,0.4-0.1,0.5-0.3c0.1-0.2,0-0.5-0.2-0.7c0,0,0,0,0,0
			c-0.7-0.4-1.5-0.6-2.3-0.6c-0.3,0-0.5,0-0.8,0.1c-0.1-0.9-0.5-1.8-1.1-2.5c0.6-0.5,1.1-1.1,1.4-1.8c0.8,0.6,1.8,0.9,2.8,0.9
			c0.4,0,0.7,0,1-0.1c0.3,2.3,2.4,4.1,4.8,4.1h0.1c1,0,2,0.4,2.7,1.1c0.2,0.2,0.5,0.2,0.7,0c0.2-0.2,0.2-0.5,0-0.7c0,0,0,0,0,0
			c-0.9-0.9-2.1-1.3-3.4-1.3h-0.1c-0.3,0-0.7,0-1-0.1c0.5-0.7,1.2-1.1,1.9-1.4c0.3-0.1,0.4-0.4,0.3-0.6c-0.1-0.3-0.4-0.4-0.6-0.3
			c-1.1,0.3-2,1-2.6,1.9c-1-0.6-1.8-1.7-1.9-2.9c0.5-0.2,1-0.6,1.4-1c0.2-0.2,0.2-0.5,0-0.7c0,0,0,0,0,0c-0.2-0.2-0.5-0.2-0.7,0
			c-0.4,0.4-0.9,0.7-1.4,0.9l0,0C17.5,5.9,16,5.6,15,4.7c0.1-0.3,0.1-0.6,0.1-0.9c0-0.3-0.2-0.5-0.5-0.5c-0.3,0-0.5,0.2-0.5,0.5
			c0,1.9-1.5,3.5-3.4,3.7c-0.1-1.1-0.6-2.1-1.4-2.8c-0.2-0.2-0.5-0.2-0.7,0c-0.2,0.2-0.2,0.5,0,0.7c0,0,0,0,0,0
			c0.6,0.6,1,1.4,1.1,2.2c-1.6,0.2-3,1.1-3.7,2.5C5.1,9.9,4.2,9.5,3.6,8.8c-0.2-0.2-0.5-0.2-0.7,0C2.7,9,2.7,9.3,2.9,9.5
			c0,0,0,0,0,0c0.7,0.8,1.7,1.3,2.7,1.5c-0.1,0.4-0.2,0.9-0.2,1.3c0,0,0,0,0,0c0,1,0.2,1.8,0.7,2.5c-0.9,0.4-1.7,1.1-2.2,2h0
			C3.7,17,3.8,17.3,4,17.5c0,0,0,0,0,0c0.1,0,0.2,0.1,0.2,0.1c0.2,0,0.3-0.1,0.4-0.3c0.5-0.8,1.2-1.4,2-1.7c0.3,0.3,0.7,0.6,1.1,0.8
			c1.1,0.7,1.7,1.7,1.7,3.4v5.3H7.7c-0.4-2.3-1.5-4.2-3.5-5.3v0c-1.6-0.7-2.8-2.2-2.9-4c-0.8-0.8-1.3-2-1.3-3.2
			C0,11.5,0.3,10.5,1,9.7z"/>
	</g>
</g>
</svg>
