<?xml version="1.0" encoding="utf-8"?>
<!-- Generator: Adobe Illustrator 21.1.0, SVG Export Plug-In . SVG Version: 6.00 Build 0)  -->
<svg version="1.1" id="Layer_1" xmlns="http://www.w3.org/2000/svg" xmlns:xlink="http://www.w3.org/1999/xlink" x="0px" y="0px"
	 width="30px" height="30px" viewBox="0 0 30 30" style="enable-background:new 0 0 30 30;" xml:space="preserve">
<style type="text/css">
	.st0{fill:#9D9D9D;}
</style>
<path class="st0" d="M24.4,11.5c0.8,0,1.7,0.3,2.4,0.9c0.6,0.5,1.5,0.6,2.2,0.3c0.2-0.1,0.4-0.2,0.6-0.3c0.3-0.2,0.5-0.5,0.5-0.9
	V0.9C30,0.4,29.5,0,29,0H18.5c-0.3,0-0.6,0.1-0.8,0.4c0,0.1-0.1,0.1-0.1,0.1C17,1.3,17,2.4,17.6,3.2c0.6,0.7,0.9,1.6,0.9,2.5
	c0,1.7-1.6,3.1-3.6,3.1s-3.6-1.4-3.6-3.1c0-0.8,0.3-1.7,0.9-2.4C12.8,2.6,13,1.8,12.6,1c-0.1-0.2-0.2-0.4-0.3-0.6
	C12.1,0.2,11.8,0,11.4,0H1C0.5,0,0,0.4,0,0.9l0,10.7c0,0.3,0.2,0.5,0.4,0.7c0,0,0.1,0.1,0.1,0.1C1.3,13,2.4,13,3.2,12.4
	c0.7-0.6,1.6-0.9,2.5-0.9c1.7,0,3.1,1.6,3.1,3.6s-1.4,3.6-3.1,3.6c-0.8,0-1.7-0.3-2.4-0.9C2.6,17.1,1.7,17,1,17.3
	c-0.2,0.1-0.4,0.2-0.6,0.3C0.2,17.8,0,18.1,0,18.4l0,10.7c0,0.5,0.5,0.9,1,0.9h10.4c0.3,0,0.6-0.1,0.8-0.4c0,0,0.1-0.1,0.1-0.2
	c0.6-0.8,0.5-1.9-0.1-2.6c-0.6-0.7-0.9-1.6-0.9-2.5c0-1.7,1.6-3.1,3.6-3.1s3.6,1.4,3.6,3.1c0,0.8-0.3,1.7-0.9,2.4
	c-0.5,0.7-0.6,1.5-0.3,2.2c0.1,0.2,0.2,0.4,0.3,0.6c0.2,0.3,0.5,0.5,0.9,0.5H29c0.6,0,1-0.4,1-0.9V18.5c0-0.3-0.1-0.6-0.4-0.8
	c0,0-0.1-0.1-0.1-0.1c-0.8-0.6-1.9-0.5-2.6,0.1c-0.7,0.6-1.6,0.9-2.5,0.9c-1.7,0-3.1-1.6-3.1-3.6C21.2,13,22.6,11.5,24.4,11.5z"/>
</svg>
